PathFileType	4	(X/Y/Z)	C:/Users/beibeiliu/ov580/test_trc/User1\sequence.21_training_dense_right.trc
DataRate	CameraRate	NumFrames	NumMarkers	Units	OrigDataRate	OrigDataStartFrame	OrigNumFrames
120	120	14	19	mm	120	36	280
Frame#	Time	ThumbCMC			ThumbMCP			ThumbIP			ThumbTip			IndexMCP			IndexPIP			IndexTip			MiddleMCP			MiddlePIP			MiddleTip			RingMCP			RingPIP			RingTip			PinkyMCP			PinkyPIP			PinkyTip			BackHand1			BackHand2			BackHand3	
		X0	Y0	Z0	X1	Y1	Z1	X2	Y2	Z2	X3	Y3	Z3	X4	Y4	Z4	X5	Y5	Z5	X6	Y6	Z6	X7	Y7	Z7	X8	Y8	Z8	X9	Y9	Z9	X10	Y10	Z10	X11	Y11	Z11	X12	Y12	Z12	X13	Y13	Z13	X14	Y14	Z14	X15	Y15	Z15	X16	Y16	Z16	X17	Y17	Z17	X18	Y18	Z18	
35	0.291667	134.869	28.5207	62.7775	127.031	6.59142	24.4839	143.748	-2.58451	1.72991	174.307	-5.44049	-1.33835	136.347	53.4206	-21.7837	138.263	53.5178	-44.7449	135.427	55.9296	-69.7881	167.409	59.5267	-28.959	167.323	63.5201	-53.992	171.855	67.9652	-82.433	194.417	51.1671	-18.3444	193.32	59.6713	-45.8129	200.278	65.6954	-70.6046	216.271	35.0507	-4.16932	223.207	35.2049	-15.4264	235.168	47.3761	-34.0493	189.661	54.6605	34.4574	193.886	58.194	69.0901	160.381	60.4596	48.3934	
36	0.3	134.325	29.1802	58.997	127.069	5.9125	28.1867	147.214	-0.674508	-0.663993	175.709	-6.20882	-2.97201	140.643	52.3714	-21.3844	134.988	54.1226	-44.8528	138.967	54.7349	-69.9438	164.269	58.7609	-28.3818	166.783	61.8044	-53.0603	166.468	69.0063	-84.3939	192.314	51.4682	-18.4347	194.603	59.167	-46.7098	197.54	64.9586	-70.6208	217.095	34.1092	0.524721	228.47	38.241	-19.0908	232.21	48.9717	-31.6526	189.937	52.4277	34.2875	191.854	59.1927	63.706	159.259	59.9618	51.1239	
37	0.308333	135.646	27.4266	62.3719	125.385	5.01945	27.0849	146.802	-1.40003	-1.71157	176.663	-5.82365	-2.85446	140.214	51.0687	-20.0363	138.833	53.997	-44.8012	134.461	56.8919	-70.9268	167.239	59.3091	-28.1521	169.262	62.8411	-54.3673	170.263	68.3729	-84.8588	193.044	53.1252	-18.1527	194.461	60.6295	-46.8276	195.522	65.6487	-68.308	218.802	34.9191	-1.69591	227.754	39.0333	-19.0801	233.635	51.9578	-35.6139	191.615	54.3977	35.2622	195.645	59.7421	63.5222	158.709	59.8335	45.5919	
38	0.316667	134.111	28.034	63.0187	125.453	6.3588	27.2905	145.569	0.00873023	-0.638994	173.381	-6.94508	-3.36102	139.876	52.5436	-23.2277	136.073	55.6915	-46.5754	137.21	57.3406	-73.0385	170.29	59.1538	-26.5217	166.306	63.5036	-52.8164	166.803	69.7887	-84.5347	191.049	54.1236	-21.316	195.541	61.0049	-42.0298	194.921	67.1377	-67.4575	216.367	35.8221	-0.123333	225.753	37.85	-14.2658	231.285	51.0239	-32.3363	190.806	52.6747	35.5584	191.951	59.2208	64.2803	159.266	61.3344	47.1753	
39	0.325	130.52	27.5652	62.947	127.759	9.05159	24.4934	147.41	3.2715	1.81006	172.867	-5.11565	-2.49144	138.915	52.2898	-16.6303	136.048	56.7027	-42.7153	136.828	58.9881	-70.372	166.527	61.2403	-27.4769	168.498	65.3497	-54.9492	171.056	69.58	-84.5572	194.344	54.5662	-21.3479	194.051	61.935	-43.6207	195.571	68.0995	-68.7386	213.531	37.9298	-1.75702	225.048	41.1132	-16.9184	232.414	53.9152	-34.3379	193.85	53.3667	35.3712	195.458	57.6987	68.5399	157.733	61.4671	48.2127	
40	0.333333	131.778	28.646	60.1146	127.28	8.43781	26.2891	145.086	1.6629	1.05513	174.065	-2.42837	-3.11854	140.548	54.428	-17.706	142.536	56.9772	-43.8379	143.749	60.2189	-73.3632	172.006	60.3286	-25.6035	169.031	63.4563	-51.147	172.029	69.125	-83.2339	195.85	51.9652	-17.4526	194.632	60.0052	-43.4611	198.476	66.023	-66.2221	217.586	36.8537	-0.886161	225.062	40.7007	-17.6965	231.164	53.6806	-33.2646	191.828	52.924	35.2291	195.253	58.5901	68.0131	161.561	58.6267	49.6145	
41	0.341667	133.924	28.8549	60.6852	124.821	8.59143	26.503	146.298	5.20337	0.90974	176.009	-1.62712	-4.86474	141.218	56.0998	-18.8169	144.592	58.4666	-45.0982	146.47	60.4582	-69.5681	170.265	61.6147	-28.8829	173.415	63.8226	-53.8862	176.698	67.7666	-85.0295	195.064	53.1856	-21.5497	193.154	59.1551	-42.2189	197.733	65.3552	-70.5387	215.754	36.78	0.319044	218.949	42.4514	-21.8855	226.298	53.7629	-34.3246	193.848	54.3527	37.7135	195.13	55.625	65.7393	158.305	59.647	50.8795	
42	0.35	135.254	29.0029	59.8436	126.088	10.0848	27.0086	145.035	5.65542	-1.51077	175.777	-0.771738	-7.94625	147.001	55.7149	-22.1035	149.394	57.248	-43.6535	153.226	59.3002	-69.3716	173.826	60.8103	-29.2332	174.718	62.6036	-51.5742	176.284	66.3303	-82.9875	190.84	52.295	-20.1359	192.889	58.6609	-45.5411	192.235	62.3741	-67.4465	214.794	37.691	-1.38188	217.576	42.4067	-18.2387	220.104	56.607	-37.3258	193.527	53.9332	37.9285	196.454	55.526	66.0074	158.961	59.1821	47.9658	
43	0.358333	132.25	27.9332	61.0151	126.863	11.5289	27.2025	143.141	6.61513	1.15203	169.764	0.182297	-6.93617	147.777	55.3219	-16.8245	147.84	59.5558	-47.2652	153.604	59.903	-68.7995	171.479	59.0845	-24.2929	170.017	63.0428	-53.3083	173.832	65.3395	-81.0292	191.307	53.3862	-18.5888	190.814	58.5745	-47.7331	195.199	61.1713	-69.3235	212.677	40.0985	-3.48171	211.024	44.0066	-20.9984	213.74	56.3614	-39.6887	192.445	53.6151	38.6903	195.348	56.3132	67.0931	162.296	58.135	52.6708	
44	0.366667	136.246	27.8567	58.9558	125.624	12.2329	28.3766	141.606	7.37165	2.05102	169.197	0.374826	-7.74176	145.267	57.7519	-20.9814	146.683	58.8639	-43.3618	157.303	59.55	-69.8986	169.493	60.2412	-27.0749	172.817	62.787	-54.2111	174.153	65.7597	-82.923	190.614	53.4206	-22.8161	189.395	59.2068	-48.5027	192.699	60.718	-70.7214	206.377	39.2821	-2.96732	210.009	44.7134	-23.9592	205.81	56.4462	-42.3277	192.979	55.4053	34.8322	195.814	53.2581	70.7784	159.507	58.0758	53.9497	
45	0.375	135.33	27.14	60.2875	124.698	12.7703	25.5602	139.978	7.93661	-1.90488	170.651	0.278876	-10.7917	146.29	56.6007	-15.9199	144.953	58.5727	-43.4338	152.929	60.2931	-71.4544	167.375	60.9273	-25.8641	167.646	62.7752	-51.2081	173.495	65.0072	-82.9774	187.73	52.708	-18.2252	188.002	58.2979	-48.1052	189.51	61.6369	-71.1818	208.774	40.8577	-5.26897	206.076	43.6025	-21.0038	209.509	56.8448	-43.0699	189.81	53.3336	37.4431	198.054	54.4225	71.4882	156.264	58.6954	51.6956	
46	0.383333	131.397	26.636	60.6674	124.209	12.4951	26.8452	141.334	7.2809	-3.38455	166.39	0.223325	-8.42539	141.494	56.3152	-17.393	147.263	58.1803	-43.3931	154.583	59.8895	-72.4203	168.129	60.0445	-25.336	167.357	62.7179	-53.6659	172.282	64.0536	-82.9161	186.77	53.2248	-18.4529	186.599	58.0101	-47.8832	187.736	60.7257	-72.1321	209.59	41.5096	-6.18759	209.277	45.053	-26.7261	203.791	55.6034	-43.7447	193.965	52.7021	33.4812	196.876	55.1282	66.8801	159.892	58.2935	52.0598	
47	0.391667	135.219	27.0722	63.9852	121.857	11.9185	25.8802	137.848	6.71142	-1.23554	168.026	2.35938	-6.51301	140.636	55.9579	-16.2275	148.791	58.2689	-44.0447	149.959	59.5945	-68.7772	170.668	59.8062	-27.1339	168.466	62.6866	-56.387	169.776	65.1483	-85.4407	188.441	52.5071	-18.5107	189.981	57.3945	-49.0347	188.088	59.2235	-70.6751	207.519	39.8291	-4.92354	204.275	43.8846	-23.5509	202.989	55.9304	-42.3019	194.206	54.2843	37.4794	194.178	55.0895	71.3642	158.891	58.2927	55.8897	
48	0.4	132.151	27.1965	63.0775	120.592	11.075	26.8981	139.935	7.09898	-1.62255	165.527	-0.58264	-8.02133	144.279	56.8563	-21.6733	143.682	58.1566	-41.7331	153.372	58.6166	-66.933	170.95	59.5332	-27.4408	167.639	62.018	-53.8467	170.406	64.4553	-84.2036	186.519	53.1992	-20.0814	188.506	56.4165	-44.5309	190.252	59.8083	-74.7182	208.081	38.4496	-3.01932	210.25	43.2972	-23.1608	203.676	54.372	-41.9879	193.762	52.7089	39.0591	196.164	55.6966	68.565	158.501	59.0105	54.4268	
